<svg width="258" height="192" viewBox="0 0 258 192" fill="none" xmlns="http://www.w3.org/2000/svg">
    <g>
        <path d="M42.3548 171.165V169.501H45.6828V181.165H43.8428V171.165H42.3548Z" fill="white" />
        <path
            d="M28.1825 129.34C29.2065 128.455 30.0118 127.73 30.5985 127.164C31.1958 126.588 31.6918 125.991 32.0865 125.372C32.4811 124.754 32.6785 124.135 32.6785 123.516C32.6785 122.876 32.5238 122.375 32.2145 122.012C31.9158 121.65 31.4411 121.468 30.7905 121.468C30.1611 121.468 29.6705 121.671 29.3185 122.076C28.9771 122.471 28.7958 123.004 28.7745 123.676H27.0145C27.0465 122.46 27.4091 121.532 28.1025 120.892C28.8065 120.242 29.6971 119.916 30.7745 119.916C31.9371 119.916 32.8438 120.236 33.4945 120.876C34.1558 121.516 34.4865 122.37 34.4865 123.436C34.4865 124.204 34.2891 124.946 33.8945 125.66C33.5105 126.364 33.0465 126.999 32.5025 127.564C31.9691 128.119 31.2865 128.764 30.4545 129.5L29.7345 130.14H34.8065V131.66H27.0305V130.332L28.1825 129.34Z"
            fill="white" />
        <path
            d="M41.7917 70.6073C41.8557 69.6153 42.2344 68.842 42.9277 68.2873C43.6317 67.7326 44.5277 67.4553 45.6157 67.4553C46.3624 67.4553 47.0077 67.5886 47.5517 67.8553C48.0957 68.122 48.5064 68.4846 48.7837 68.9433C49.0611 69.402 49.1997 69.9193 49.1997 70.4953C49.1997 71.1566 49.0237 71.722 48.6717 72.1913C48.3197 72.6606 47.8984 72.9753 47.4077 73.1353V73.1993C48.0371 73.3913 48.5277 73.7433 48.8797 74.2553C49.2317 74.7566 49.4077 75.402 49.4077 76.1913C49.4077 76.8206 49.2637 77.3806 48.9757 77.8713C48.6877 78.362 48.2611 78.7513 47.6957 79.0393C47.1304 79.3166 46.4531 79.4553 45.6637 79.4553C44.5117 79.4553 43.5624 79.162 42.8157 78.5753C42.0797 77.978 41.6851 77.1246 41.6317 76.0153H43.3917C43.4344 76.5806 43.6531 77.0446 44.0477 77.4073C44.4424 77.7593 44.9757 77.9353 45.6477 77.9353C46.2984 77.9353 46.7997 77.7593 47.1517 77.4073C47.5037 77.0446 47.6797 76.5806 47.6797 76.0153C47.6797 75.2686 47.4397 74.7406 46.9597 74.4313C46.4904 74.1113 45.7651 73.9513 44.7837 73.9513H44.3677V72.4473H44.7997C45.6637 72.4366 46.3197 72.2926 46.7677 72.0153C47.2264 71.738 47.4557 71.3006 47.4557 70.7033C47.4557 70.1913 47.2904 69.786 46.9597 69.4873C46.6291 69.178 46.1597 69.0233 45.5517 69.0233C44.9544 69.0233 44.4904 69.178 44.1597 69.4873C43.8291 69.786 43.6317 70.1593 43.5677 70.6073H41.7917Z"
            fill="white" />
        <path
            d="M79.3795 42.2637V40.8877L84.7555 33.1757H86.9635V40.6797H88.4515V42.2637H86.9635V44.6957H85.1715V42.2637H79.3795ZM85.2515 35.0317L81.4755 40.6797H85.2515V35.0317Z"
            fill="white" />
        <path
            d="M138.781 24.5765H133.421V27.7605C133.645 27.4618 133.976 27.2112 134.413 27.0085C134.861 26.8058 135.336 26.7045 135.837 26.7045C136.733 26.7045 137.459 26.8965 138.013 27.2805C138.579 27.6645 138.979 28.1498 139.213 28.7365C139.459 29.3232 139.581 29.9418 139.581 30.5925C139.581 31.3818 139.427 32.0858 139.117 32.7045C138.819 33.3125 138.365 33.7925 137.757 34.1445C137.16 34.4965 136.424 34.6725 135.549 34.6725C134.387 34.6725 133.453 34.3845 132.749 33.8085C132.045 33.2325 131.624 32.4698 131.485 31.5205H133.261C133.379 32.0218 133.64 32.4218 134.045 32.7205C134.451 33.0085 134.957 33.1525 135.565 33.1525C136.323 33.1525 136.888 32.9232 137.261 32.4645C137.645 32.0058 137.837 31.3978 137.837 30.6405C137.837 29.8725 137.645 29.2858 137.261 28.8805C136.877 28.4645 136.312 28.2565 135.565 28.2565C135.043 28.2565 134.6 28.3898 134.237 28.6565C133.885 28.9125 133.629 29.2645 133.469 29.7125H131.741V22.9765H138.781V24.5765Z"
            fill="white" />
        <path
            d="M188.42 34.1936C188.303 33.703 188.09 33.335 187.78 33.0896C187.471 32.8443 187.039 32.7216 186.484 32.7216C185.642 32.7216 185.012 33.047 184.596 33.6976C184.18 34.3376 183.962 35.4043 183.94 36.8976C184.218 36.4283 184.623 36.0656 185.156 35.8096C185.69 35.5536 186.266 35.4256 186.884 35.4256C187.588 35.4256 188.207 35.5803 188.74 35.8896C189.284 36.1883 189.706 36.6256 190.004 37.2016C190.314 37.7776 190.468 38.4656 190.468 39.2656C190.468 40.0123 190.319 40.679 190.02 41.2656C189.732 41.8523 189.3 42.3163 188.724 42.6576C188.148 42.9883 187.455 43.1536 186.644 43.1536C185.546 43.1536 184.682 42.9136 184.052 42.4336C183.434 41.943 182.996 41.255 182.74 40.3696C182.495 39.4843 182.372 38.3803 182.372 37.0576C182.372 33.1536 183.748 31.2016 186.5 31.2016C187.567 31.2016 188.404 31.4896 189.012 32.0656C189.631 32.6416 189.994 33.351 190.1 34.1936H188.42ZM186.484 36.9616C185.834 36.9616 185.279 37.159 184.82 37.5536C184.372 37.9376 184.148 38.4976 184.148 39.2336C184.148 39.9696 184.356 40.5563 184.772 40.9936C185.199 41.4203 185.791 41.6336 186.548 41.6336C187.22 41.6336 187.748 41.4256 188.132 41.0096C188.527 40.5936 188.724 40.039 188.724 39.3456C188.724 38.6203 188.532 38.0443 188.148 37.6176C187.775 37.1803 187.22 36.9616 186.484 36.9616Z"
            fill="white" />
        <path d="M229.077 72.744L224.629 83H222.789L227.285 72.936H221.365V71.384H229.077V72.744Z"
            fill="white" />
        <path
            d="M235.858 126.266C234.749 125.712 234.194 124.837 234.194 123.642C234.194 123.066 234.338 122.538 234.626 122.058C234.914 121.578 235.346 121.2 235.922 120.922C236.498 120.634 237.202 120.49 238.034 120.49C238.856 120.49 239.554 120.634 240.13 120.922C240.717 121.2 241.154 121.578 241.442 122.058C241.73 122.538 241.874 123.066 241.874 123.642C241.874 124.24 241.72 124.768 241.41 125.226C241.112 125.674 240.712 126.021 240.21 126.266C240.818 126.49 241.298 126.858 241.65 127.37C242.002 127.872 242.178 128.464 242.178 129.146C242.178 129.84 242.002 130.453 241.65 130.986C241.298 131.52 240.808 131.93 240.178 132.218C239.549 132.506 238.834 132.65 238.034 132.65C237.234 132.65 236.52 132.506 235.89 132.218C235.272 131.93 234.786 131.52 234.434 130.986C234.082 130.453 233.906 129.84 233.906 129.146C233.906 128.453 234.082 127.856 234.434 127.354C234.786 126.853 235.261 126.49 235.858 126.266ZM240.13 123.866C240.13 123.269 239.944 122.81 239.57 122.49C239.197 122.17 238.685 122.01 238.034 122.01C237.394 122.01 236.888 122.17 236.514 122.49C236.141 122.81 235.954 123.274 235.954 123.882C235.954 124.416 236.146 124.853 236.53 125.194C236.925 125.525 237.426 125.69 238.034 125.69C238.642 125.69 239.144 125.52 239.538 125.178C239.933 124.837 240.13 124.4 240.13 123.866ZM238.034 127.066C237.33 127.066 236.754 127.242 236.306 127.594C235.869 127.936 235.65 128.432 235.65 129.082C235.65 129.69 235.864 130.186 236.29 130.57C236.717 130.944 237.298 131.13 238.034 131.13C238.76 131.13 239.33 130.938 239.746 130.554C240.173 130.17 240.386 129.68 240.386 129.082C240.386 128.442 240.168 127.946 239.73 127.594C239.304 127.242 238.738 127.066 238.034 127.066Z"
            fill="white" />
        <path
            d="M220.887 179.081C220.994 179.615 221.223 180.02 221.575 180.297C221.927 180.575 222.402 180.713 222.999 180.713C223.756 180.713 224.311 180.415 224.663 179.817C225.015 179.22 225.191 178.201 225.191 176.761C224.935 177.124 224.572 177.407 224.103 177.609C223.644 177.801 223.143 177.897 222.599 177.897C221.906 177.897 221.276 177.759 220.711 177.481C220.146 177.193 219.698 176.772 219.367 176.217C219.047 175.652 218.887 174.969 218.887 174.169C218.887 172.996 219.228 172.063 219.911 171.369C220.604 170.665 221.554 170.313 222.759 170.313C224.21 170.313 225.239 170.799 225.847 171.769C226.466 172.729 226.775 174.207 226.775 176.201C226.775 177.577 226.658 178.703 226.423 179.577C226.199 180.452 225.804 181.113 225.239 181.561C224.674 182.009 223.89 182.233 222.887 182.233C221.746 182.233 220.866 181.935 220.247 181.337C219.628 180.74 219.282 179.988 219.207 179.081H220.887ZM222.919 176.361C223.559 176.361 224.06 176.164 224.423 175.769C224.796 175.364 224.983 174.831 224.983 174.169C224.983 173.433 224.786 172.863 224.391 172.457C224.007 172.041 223.479 171.833 222.807 171.833C222.135 171.833 221.602 172.047 221.207 172.473C220.823 172.889 220.631 173.439 220.631 174.121C220.631 174.772 220.818 175.311 221.191 175.737C221.575 176.153 222.151 176.361 222.919 176.361Z"
            fill="white" />
    </g>
    <path d="M238.629 184.368L231.69 180.513" class="grandBox" stroke="white" stroke-width="2.41451"
        stroke-linecap="round" />
    <path d="M244.691 174.053L238.304 170.842" stroke="#272728" stroke-opacity="0.83"
        stroke-linecap="round" />
    <path d="M249.659 162.164L242.836 159.912" stroke="#272728" stroke-opacity="0.83"
        stroke-linecap="round" />
    <path d="M253.727 150.271L246.006 148.511" stroke="#272728" stroke-opacity="0.83"
        stroke-linecap="round" />
    <path d="M255.206 137.44L247.961 137.098" stroke="#272728" stroke-opacity="0.83"
        stroke-linecap="round" />
    <path d="M255.971 126.344L248.267 126.156" class="grandBox" stroke="white"
        stroke-width="2.41451"
        stroke-linecap="round" />
    <path d="M255.517 112.249L248.74 112.849" stroke="#272728" stroke-opacity="0.83"
        stroke-linecap="round" />
    <path d="M254.022 99.8887L247.253 100.964" stroke="#272728" stroke-opacity="0.83"
        stroke-linecap="round" />
    <path d="M250.977 87.0496L243.78 89.5589" stroke="#272728" stroke-opacity="0.83"
        stroke-linecap="round" />
    <path d="M247.217 75.1688L240.487 78.6205" stroke="#272728" stroke-opacity="0.83"
        stroke-linecap="round" />
    <path d="M242.057 65.0001L235.804 69.8694" class="grandBox" stroke="white"
        stroke-width="2.41451"
        stroke-linecap="round" />
    <path d="M235.601 55.0001L228.801 59.7025" stroke="#272728" stroke-opacity="0.83"
        stroke-linecap="round" />
    <path d="M225.617 43.3306L220.285 49.1339" stroke="#272728" stroke-opacity="0.83"
        stroke-linecap="round" />
    <path d="M216.122 34.7821L211.685 40.0936" stroke="#272728" stroke-opacity="0.83"
        stroke-linecap="round" />
    <path d="M206.614 26.2207L201.741 32.4911" stroke="#272728" stroke-opacity="0.83"
        stroke-linecap="round" />
    <path d="M195.626 19.4919L191.597 25.9247" class="grandBox" stroke="white"
        stroke-width="2.41451"
        stroke-linecap="round" />
    <path d="M184.893 13.3982L181.393 20.5943" stroke="#272728" stroke-opacity="0.83"
        stroke-linecap="round" />
    <path d="M173.132 9.12789L170.536 16.3074" stroke="#272728" stroke-opacity="0.83"
        stroke-linecap="round" />
    <path d="M160.017 5.8127L158.771 12.492" stroke="#272728" stroke-opacity="0.83"
        stroke-linecap="round" />
    <path d="M147.339 2.97302L147.473 11.0534" stroke="#272728" stroke-opacity="0.83"
        stroke-linecap="round" />
    <path d="M134.527 2.02319L134.928 10.5044" class="grandBox" stroke="white"
        stroke-width="2.41451"
        stroke-linecap="round" />
    <path d="M122.007 2.97302L122.141 11.0534" stroke="#272728" stroke-opacity="0.83"
        stroke-linecap="round" />
    <path d="M108.888 4.88666L110.379 12.9421" stroke="#272728" stroke-opacity="0.83"
        stroke-linecap="round" />
    <path d="M96.2221 7.75085L99.0701 15.7814" stroke="#272728" stroke-opacity="0.83"
        stroke-linecap="round" />
    <path d="M84.4646 12.5095L87.757 20.0564" stroke="#272728" stroke-opacity="0.83"
        stroke-linecap="round" />
    <path d="M72.5856 18.306L76.7159 24.7681" class="grandBox" stroke="white" stroke-width="2.41451"
        stroke-linecap="round" />
    <path d="M61.8584 24.8814L66.484 30.9775" stroke="#272728" stroke-opacity="0.83"
        stroke-linecap="round" />
    <path d="M51.9105 32.9718L57.4328 38.576" stroke="#272728" stroke-opacity="0.83"
        stroke-linecap="round" />
    <path d="M42.4148 42.012L48.8338 47.1243" stroke="#272728" stroke-opacity="0.83"
        stroke-linecap="round" />
    <path d="M33.816 51.0485L40.6952 56.6278" stroke="#272728" stroke-opacity="0.83"
        stroke-linecap="round" />
    <path d="M27.4248 62.1202L35.4667 66.7884" class="grandBox" stroke="white"
        stroke-width="2.41451"
        stroke-linecap="round" />
    <path d="M21.6181 73.3917L28.4656 77.0698" stroke="#272728" stroke-opacity="0.83"
        stroke-linecap="round" />
    <path d="M16.6499 85.2807L23.934 87.9998" stroke="#272728" stroke-opacity="0.83"
        stroke-linecap="round" />
    <path d="M13.035 97.1693L20.7634 99.4048" stroke="#272728" stroke-opacity="0.83"
        stroke-linecap="round" />
    <path d="M11.2452 110.48L18.9342 110.339" stroke="#272728" stroke-opacity="0.83"
        stroke-linecap="round" />
    <path d="M10.7942 125.371L20.0464 125.383" class="grandBox" stroke="white"
        stroke-width="2.41451"
        stroke-linecap="round" />
    <path d="M11.7055 135.671L18.9264 134.588" stroke="#272728" stroke-opacity="0.83"
        stroke-linecap="round" />
    <path d="M13.5189 148.031L20.732 146.473" stroke="#272728" stroke-opacity="0.83"
        stroke-linecap="round" />
    <path d="M16.237 160.396L23.8944 158.353" stroke="#272728" stroke-opacity="0.83"
        stroke-linecap="round" />
    <path d="M20.3203 172.284L28.4064 168.808" stroke="#272728" stroke-opacity="0.83"
        stroke-linecap="round" />
    <path d="M26.2145 183.597L34.3101 178.971" stroke="white" stroke-width="2.41451"
        stroke-linecap="round" class="grandBox" />
    <defs>
        <filter id="filter0_d_10_101" x="10.2174" y="45.9127" width="42.4567" height="39.0833"
            filterUnits="userSpaceOnUse" color-interpolation-filters="sRGB">
            <feFlood flood-opacity="0" result="BackgroundImageFix" />
            <feColorMatrix in="SourceAlpha" type="matrix"
                values="0 0 0 0 0 0 0 0 0 0 0 0 0 0 0 0 0 0 127 0" result="hardAlpha" />
            <feOffset dy="1" />
            <feGaussianBlur stdDeviation="8" />
            <feComposite in2="hardAlpha" operator="out" />
            <feColorMatrix type="matrix" values="0 0 0 0 1 0 0 0 0 1 0 0 0 0 1 0 0 0 0.28 0" />
            <feBlend mode="normal" in2="BackgroundImageFix" result="effect1_dropShadow_10_101" />
            <feBlend mode="normal" in="SourceGraphic" in2="effect1_dropShadow_10_101" result="shape" />
        </filter>
        <filter id="filter1_d_10_101" x="-6.41305" y="109.163" width="43.6667" height="34.4272"
            filterUnits="userSpaceOnUse" color-interpolation-filters="sRGB">
            <feFlood flood-opacity="0" result="BackgroundImageFix" />
            <feColorMatrix in="SourceAlpha" type="matrix"
                values="0 0 0 0 0 0 0 0 0 0 0 0 0 0 0 0 0 0 127 0" result="hardAlpha" />
            <feOffset dy="1" />
            <feGaussianBlur stdDeviation="8" />
            <feComposite in2="hardAlpha" operator="out" />
            <feColorMatrix type="matrix" values="0 0 0 0 1 0 0 0 0 1 0 0 0 0 1 0 0 0 0.28 0" />
            <feBlend mode="normal" in2="BackgroundImageFix" result="effect1_dropShadow_10_101" />
            <feBlend mode="normal" in="SourceGraphic" in2="effect1_dropShadow_10_101" result="shape" />
        </filter>
        <filter id="filter2_d_10_101" x="9.00706" y="162.763" width="42.5105" height="39.0413"
            filterUnits="userSpaceOnUse" color-interpolation-filters="sRGB">
            <feFlood flood-opacity="0" result="BackgroundImageFix" />
            <feColorMatrix in="SourceAlpha" type="matrix"
                values="0 0 0 0 0 0 0 0 0 0 0 0 0 0 0 0 0 0 127 0" result="hardAlpha" />
            <feOffset dy="1" />
            <feGaussianBlur stdDeviation="8" />
            <feComposite in2="hardAlpha" operator="out" />
            <feColorMatrix type="matrix" values="0 0 0 0 1 0 0 0 0 1 0 0 0 0 1 0 0 0 0.28 0" />
            <feBlend mode="normal" in2="BackgroundImageFix" result="effect1_dropShadow_10_101" />
            <feBlend mode="normal" in="SourceGraphic" in2="effect1_dropShadow_10_101" result="shape" />
        </filter>
    </defs>
</svg>