<svg width="21" height="21" viewBox="0 0 21 21" fill="none" xmlns="http://www.w3.org/2000/svg">
<g id="material-symbols:mic-rounded">
<path id="Vector" d="M10.5002 12.25C9.77107 12.25 9.15128 11.9948 8.64086 11.4844C8.13044 10.974 7.87523 10.3542 7.87523 9.625V4.375C7.87523 3.64583 8.13044 3.02604 8.64086 2.51562C9.15128 2.00521 9.77107 1.75 10.5002 1.75C11.2294 1.75 11.8492 2.00521 12.3596 2.51562C12.87 3.02604 13.1252 3.64583 13.1252 4.375V9.625C13.1252 10.3542 12.87 10.974 12.3596 11.4844C11.8492 11.9948 11.2294 12.25 10.5002 12.25ZM10.5002 18.375C10.2523 18.375 10.0444 18.291 9.87636 18.123C9.70836 17.955 9.62465 17.7473 9.62523 17.5V15.6625C8.26898 15.4875 7.1169 14.926 6.16898 13.9781C5.22107 13.0302 4.64503 11.8927 4.44086 10.5656C4.39711 10.3177 4.46273 10.099 4.63773 9.90937C4.81273 9.71979 5.04607 9.625 5.33773 9.625C5.5419 9.625 5.72419 9.70142 5.88461 9.85425C6.04503 10.0071 6.14711 10.1932 6.19086 10.4125C6.38044 11.4333 6.87628 12.2865 7.67836 12.9719C8.48044 13.6573 9.42107 14 10.5002 14C11.5794 14 12.52 13.6573 13.3221 12.9719C14.1242 12.2865 14.62 11.4333 14.8096 10.4125C14.8534 10.1937 14.9589 10.0077 15.1264 9.85425C15.2938 9.70083 15.4799 9.62442 15.6846 9.625C15.9617 9.625 16.1877 9.71979 16.3627 9.90937C16.5377 10.099 16.6034 10.3177 16.5596 10.5656C16.3554 11.8927 15.7794 13.0302 14.8315 13.9781C13.8836 14.926 12.7315 15.4875 11.3752 15.6625V17.5C11.3752 17.7479 11.2912 17.9559 11.1232 18.1239C10.9552 18.2919 10.7476 18.3756 10.5002 18.375Z" fill="white"/>
</g>
</svg>
