<svg width="21" height="21" viewBox="0 0 21 21" fill="none" xmlns="http://www.w3.org/2000/svg">
<g id="mdi:seatbelt">
<path id="Vector" d="M10.4997 1.75C10.9639 1.75 11.409 1.93437 11.7372 2.26256C12.0654 2.59075 12.2497 3.03587 12.2497 3.5C12.2497 4.47125 11.471 5.25 10.4997 5.25C10.0356 5.25 9.59048 5.06563 9.26229 4.73744C8.9341 4.40925 8.74973 3.96413 8.74973 3.5C8.74973 3.03587 8.9341 2.59075 9.26229 2.26256C9.59048 1.93437 10.0356 1.75 10.4997 1.75ZM10.841 12.9412C12.0839 12.9364 13.3259 13.0095 14.5597 13.16C14.6122 10.78 14.4022 8.68 13.9997 7.875C13.886 7.63875 13.7285 7.4375 13.5622 7.2625L6.50098 13.3175C7.69098 13.125 9.18723 12.9412 10.841 12.9412ZM6.52723 14.875C6.64098 16.3975 6.86848 17.9375 7.23598 19.25H9.04723C8.79348 18.48 8.60973 17.5788 8.46973 16.625C8.46973 16.625 10.4997 16.24 12.5297 16.625C12.3897 17.5788 12.206 18.48 11.9522 19.25H13.7635C14.1485 17.8938 14.376 16.2838 14.4897 14.6913C13.279 14.5449 12.0605 14.4718 10.841 14.4725C9.15223 14.4725 7.68223 14.6562 6.52723 14.875ZM10.4997 6.125C10.4997 6.125 7.87473 6.125 6.99973 7.875C6.70223 8.47 6.50973 9.75625 6.44848 11.34L12.1797 6.4225C11.3135 6.125 10.4997 6.125 10.4997 6.125ZM16.2485 4.96125L15.251 3.7975L12.1797 6.43125C12.661 6.5975 13.1685 6.86 13.5622 7.2625L16.2485 4.96125ZM18.086 13.8512C18.0072 13.825 16.7472 13.4137 14.5597 13.16C14.551 13.6587 14.5247 14.175 14.4897 14.6913C16.4585 14.9363 17.5872 15.3125 17.6047 15.3125L18.086 13.8512ZM6.44848 11.34L3.00098 14.2975L3.77973 15.5925C3.79723 15.5837 4.81223 15.19 6.52723 14.875C6.43098 13.6413 6.40473 12.425 6.44848 11.34Z" fill="white"/>
</g>
</svg>
